<svg width="25" height="24" viewBox="0 0 25 24" fill="none" xmlns="http://www.w3.org/2000/svg">
    <path d="M22.6911 22.9365H14.2909C17.0277 20.0915 22.4591 13.0853 22.2897 7.82139C22.1233 2.65171 17.3739 2.66907 14.5658 3.50076C12.6967 4.12386 10.7616 5.46725 9.08925 6.96003C6.64211 9.14441 3.86554 14.1853 2.87726 17.4259C0.412029 25.8319 10.4292 17.3045 13.4894 14.1853C14.6609 12.9913 16.1392 11.0864 16.3834 10.5166C16.8923 9.32902 17.0669 8.49971 15.9368 8.52527C13.5777 8.57862 9.83972 13.4782 8.38334 16.2164V9.36045C9.14025 9.18134 11.1433 8.59152 12.9433 8.11391C14.5714 7.68192 16.1317 7.1436 17.7611 7.91077C21.6563 9.74479 18.2567 21.7815 8.66567 22.9365C0.0253801 23.9771 -0.0846235 16.0758 0.940411 11.9951C1.81544 7.78692 6.16059 -0.262272 16.5409 1.20678C26.9213 2.67583 24.9662 16.3054 22.6911 22.9365Z"
          fill="#1A1A1A"/>
</svg>
