<svg width="45" height="36" viewBox="0 0 45 36" fill="none" xmlns="http://www.w3.org/2000/svg">
    <path d="M31.2789 23.1138H24.2787C26.5594 20.7429 31.0856 14.9045 30.9444 10.5179C30.8058 6.2098 26.8479 6.22426 24.5078 6.91734C22.9503 7.43659 21.3376 8.55608 19.944 9.80006C17.9047 11.6204 15.5909 15.8211 14.7674 18.5216C12.713 25.5266 21.0606 18.4205 23.6108 15.8211C24.587 14.8261 25.819 13.2387 26.0225 12.7639C26.4466 11.7742 26.5921 11.0831 25.6503 11.1044C23.6844 11.1489 20.5694 15.2319 19.3558 17.5137V11.8004C19.9865 11.6512 21.6557 11.1596 23.1557 10.7616C24.5125 10.4016 25.8127 9.95304 27.1705 10.5923C30.4166 12.1207 27.5836 22.1512 19.591 23.1138C12.3908 23.981 12.2991 17.3966 13.1533 13.996C13.8825 10.4891 17.5035 3.78148 26.1538 5.00569C34.8041 6.2299 33.1748 17.5879 31.2789 23.1138Z"
          fill="#1A1A1A"/>
    <path d="M10.6112 31.9055V26H11.4773V31.9055H10.6112Z" fill="#1A1A1A"/>
    <path d="M15.8853 31.3937C15.4916 31.7874 15.0034 31.9843 14.4207 31.9843C13.838 31.9843 13.3472 31.7874 12.9483 31.3937C12.5546 30.9948 12.3577 30.5092 12.3577 29.937C12.3577 29.3648 12.5546 28.8819 12.9483 28.4882C13.3472 28.0892 13.838 27.8898 14.4207 27.8898C15.0034 27.8898 15.4916 28.0892 15.8853 28.4882C16.2842 28.8819 16.4837 29.3648 16.4837 29.937C16.4837 30.5092 16.2842 30.9948 15.8853 31.3937ZM14.4207 31.1811C14.7619 31.1811 15.0428 31.063 15.2632 30.8268C15.4889 30.5853 15.6018 30.2887 15.6018 29.937C15.6018 29.5853 15.4889 29.2913 15.2632 29.0551C15.0428 28.8136 14.7619 28.6929 14.4207 28.6929C14.0742 28.6929 13.7882 28.8136 13.5624 29.0551C13.342 29.2913 13.2317 29.5853 13.2317 29.937C13.2317 30.2887 13.342 30.5853 13.5624 30.8268C13.7882 31.063 14.0742 31.1811 14.4207 31.1811Z"
          fill="#1A1A1A"/>
    <path d="M19.4887 31.9843C19.221 31.9843 18.9716 31.9265 18.7406 31.811C18.5149 31.6903 18.3417 31.5459 18.221 31.378V31.9055H17.3548V26H18.221V28.4961C18.3417 28.3281 18.5149 28.1864 18.7406 28.0709C18.9716 27.9501 19.221 27.8898 19.4887 27.8898C20.0241 27.8898 20.4729 28.0892 20.8351 28.4882C21.2026 28.8871 21.3863 29.3701 21.3863 29.937C21.3863 30.5039 21.2026 30.9869 20.8351 31.3858C20.4729 31.7848 20.0241 31.9843 19.4887 31.9843ZM19.3312 31.1969C19.6724 31.1969 19.9532 31.0761 20.1737 30.8346C20.3942 30.5932 20.5044 30.294 20.5044 29.937C20.5044 29.5801 20.3942 29.2808 20.1737 29.0394C19.9532 28.7979 19.6724 28.6772 19.3312 28.6772C18.9847 28.6772 18.7013 28.7979 18.4808 29.0394C18.2603 29.2808 18.1501 29.5801 18.1501 29.937C18.1501 30.294 18.2603 30.5932 18.4808 30.8346C18.7013 31.0761 18.9847 31.1969 19.3312 31.1969Z"
          fill="#1A1A1A"/>
    <path d="M23.8826 31.9843C23.3471 31.9843 22.8957 31.7848 22.5282 31.3858C22.166 30.9869 21.9849 30.5039 21.9849 29.937C21.9849 29.3701 22.166 28.8871 22.5282 28.4882C22.8957 28.0892 23.3471 27.8898 23.8826 27.8898C24.1503 27.8898 24.397 27.9501 24.6227 28.0709C24.8484 28.1864 25.0217 28.3281 25.1424 28.4961V27.9685H26.0085V31.9055H25.1424V31.378C25.0217 31.5459 24.8484 31.6903 24.6227 31.811C24.397 31.9265 24.1503 31.9843 23.8826 31.9843ZM23.1975 30.8346C23.418 31.0761 23.6988 31.1969 24.04 31.1969C24.3813 31.1969 24.6621 31.0761 24.8826 30.8346C25.103 30.5932 25.2133 30.294 25.2133 29.937C25.2133 29.5801 25.103 29.2808 24.8826 29.0394C24.6621 28.7979 24.3813 28.6772 24.04 28.6772C23.6988 28.6772 23.418 28.7979 23.1975 29.0394C22.9771 29.2808 22.8668 29.5801 22.8668 29.937C22.8668 30.294 22.9771 30.5932 23.1975 30.8346Z"
          fill="#1A1A1A"/>
    <path d="M27.182 31.9055V26H28.0481V31.9055H27.182Z" fill="#1A1A1A"/>
    <path d="M32.6793 31.9843C32.1439 31.9843 31.6924 31.7848 31.325 31.3858C30.9628 30.9869 30.7817 30.5039 30.7817 29.937C30.7817 29.3701 30.9628 28.8871 31.325 28.4882C31.6924 28.0892 32.1439 27.8898 32.6793 27.8898C32.947 27.8898 33.1938 27.9501 33.4195 28.0709C33.6452 28.1864 33.8184 28.3281 33.9392 28.4961V27.9685H34.8053V31.9055H33.9392V31.378C33.8184 31.5459 33.6452 31.6903 33.4195 31.811C33.1938 31.9265 32.947 31.9843 32.6793 31.9843ZM31.9943 30.8346C32.2147 31.0761 32.4956 31.1969 32.8368 31.1969C33.178 31.1969 33.4588 31.0761 33.6793 30.8346C33.8998 30.5932 34.01 30.294 34.01 29.937C34.01 29.5801 33.8998 29.2808 33.6793 29.0394C33.4588 28.7979 33.178 28.6772 32.8368 28.6772C32.4956 28.6772 32.2147 28.7979 31.9943 29.0394C31.7738 29.2808 31.6636 29.5801 31.6636 29.937C31.6636 30.294 31.7738 30.5932 31.9943 30.8346Z"
          fill="#1A1A1A"/>
    <path d="M39.7986 28.7981V31.9054H38.9056L38.9057 26.8708H39.7986L39.7986 27.944L40.7393 27.9441V28.7982L39.7986 28.7981Z"
          fill="#1A1A1A"/>
    <path d="M36.8965 28.798V31.9053H36.0036L36.0037 27.9439L36.0036 27.943H36.8965V27.9439L37.9539 27.944V28.7981L36.8965 28.798Z"
          fill="#1A1A1A"/>
    <path d="M6.92126 32C6.08661 32 5.39108 31.7244 4.83465 31.1732C4.27822 30.6168 4 29.9291 4 29.1102C4 28.2913 4.27559 27.6063 4.82677 27.0551C5.3832 26.4987 6.07874 26.2205 6.91339 26.2205C7.52756 26.2205 8.07612 26.3858 8.55906 26.7165C8.86657 26.9271 9.11343 27.1728 9.29963 27.4536L8.51181 27.9685C8.36483 27.7113 8.14698 27.5039 7.85827 27.3465C7.5748 27.189 7.25984 27.1102 6.91339 27.1102C6.33596 27.1102 5.86089 27.3018 5.48819 27.685C5.11549 28.0682 4.92913 28.5433 4.92913 29.1102C4.92913 29.6772 5.11549 30.1522 5.48819 30.5354C5.86089 30.9186 6.33858 31.1102 6.92126 31.1102C7.43045 31.1102 7.84777 30.9633 8.17323 30.6693C8.4073 30.4579 8.5735 30.1976 8.6718 29.8884H6.92282V28.8337H9.71591C9.77081 29.7809 9.54267 30.5371 9.0315 31.1024C8.49081 31.7008 7.7874 32 6.92126 32Z"
          fill="#1A1A1A"/>
</svg>
