<svg width="72" height="20" viewBox="0 0 72 20" fill="none" xmlns="http://www.w3.org/2000/svg">
    <path d="M18.4926 17.9235H11.4924C13.7731 15.5957 18.2993 9.86344 18.1581 5.55657C18.0195 1.32683 14.0616 1.34103 11.7215 2.0215C10.1639 2.53132 8.55133 3.63046 7.15771 4.85182C5.11842 6.63904 2.80461 10.7634 1.98105 13.4148C-0.073309 20.2924 8.27432 13.3155 10.8245 10.7634C11.8007 9.78646 13.0327 8.22796 13.2362 7.76175C13.6602 6.79008 13.8058 6.11156 12.864 6.13247C10.8981 6.17612 7.7831 10.1849 6.56945 12.4252V6.8158C7.20021 6.66925 8.8694 6.18668 10.3694 5.79591C11.7262 5.44245 13.0264 5.00202 14.3842 5.6297C17.6302 7.13026 14.7973 16.9784 6.80473 17.9235C-0.395517 18.7749 -0.487186 12.3102 0.367009 8.97146C1.0962 5.52836 4.71716 -1.05734 13.3674 0.144615C22.0177 1.34657 20.3885 12.498 18.4926 17.9235Z"
          fill="white"/>
    <path d="M26 17.3303L31.199 5.28068H32.9096L38.1085 17.3303H36.0625L34.7041 14.1736H29.3709L28.0293 17.3303H26ZM32.0375 7.96214L30.1256 12.4086H33.9494L32.0375 7.96214Z"
          fill="white"/>
    <path d="M52.5156 6.99478C52.1802 6.99478 51.8895 6.87598 51.6435 6.63838C51.3976 6.38947 51.2746 6.08964 51.2746 5.7389C51.2746 5.39948 51.3976 5.11097 51.6435 4.87337C51.8895 4.62446 52.1802 4.5 52.5156 4.5C52.8622 4.5 53.1529 4.62446 53.3877 4.87337C53.6225 5.11097 53.7399 5.39948 53.7399 5.7389C53.7399 6.08964 53.6225 6.38947 53.3877 6.63838C53.1529 6.87598 52.8622 6.99478 52.5156 6.99478ZM51.5932 17.3303V8.84465H53.438V17.3303H51.5932Z"
          fill="white"/>
    <path d="M58.8686 17.5C57.8736 17.5 57.035 17.2511 56.353 16.7533C55.6822 16.2554 55.3244 15.5879 55.2797 14.7507H57.1915C57.3257 15.5879 57.9015 16.0065 58.9189 16.0065C59.3326 16.0065 59.6624 15.933 59.9084 15.7859C60.1544 15.6275 60.2774 15.4012 60.2774 15.1071C60.2774 14.8129 60.1823 14.5809 59.9923 14.4112C59.8022 14.2415 59.4836 14.1001 59.0363 13.9869L57.6611 13.6136C56.23 13.2289 55.5145 12.3747 55.5145 11.0509C55.5145 10.3381 55.7996 9.76675 56.3698 9.33681C56.94 8.89556 57.6947 8.67493 58.6338 8.67493C59.5395 8.67493 60.283 8.90688 60.8644 9.37076C61.4457 9.83464 61.77 10.4513 61.8371 11.2206H59.9923C59.8134 10.5191 59.355 10.1684 58.6171 10.1684C58.2481 10.1684 57.9518 10.2476 57.7282 10.406C57.5046 10.5531 57.3928 10.7624 57.3928 11.0339C57.3928 11.5205 57.7673 11.8599 58.5164 12.0522L59.9252 12.4256C61.4122 12.8103 62.1557 13.6645 62.1557 14.9883C62.1557 15.7916 61.8482 16.4138 61.2333 16.8551C60.6296 17.285 59.8413 17.5 58.8686 17.5Z"
          fill="white"/>
    <path d="M47.5485 10.6093V17.3304H45.6398L45.6399 6.44056H47.5486L47.5485 8.76184L49.5593 8.76205V10.6095L47.5485 10.6093Z"
          fill="white"/>
    <path d="M41.3455 10.6091V17.3302H39.4368L39.4371 8.76167L39.4368 8.75974H41.3455V8.76167L43.6056 8.76188V10.6093L41.3455 10.6091Z"
          fill="white"/>
    <path d="M65.9892 10.6093V17.3304H64.0805L64.0806 6.44056H65.9893L65.9892 8.76184L68 8.76205V10.6095L65.9892 10.6093Z"
          fill="white"/>
</svg>
