<svg width="25" height="24" viewBox="0 0 25 24" fill="none" xmlns="http://www.w3.org/2000/svg">
    <path d="M22.6911 23.4065H14.2909C17.0277 20.5614 22.4591 13.5553 22.2897 8.29136C22.1233 3.12168 17.3739 3.13904 14.5658 3.97073C12.6967 4.59383 10.7616 5.93722 9.08925 7.43C6.64211 9.61438 3.86554 14.6553 2.87726 17.8958C0.412029 26.3018 10.4292 17.7745 13.4894 14.6553C14.6609 13.4612 16.1392 11.5564 16.3834 10.9866C16.8923 9.79899 17.0669 8.96968 15.9368 8.99524C13.5777 9.04859 9.83972 13.9482 8.38334 16.6864V9.83042C9.14025 9.65131 11.1433 9.06149 12.9433 8.58389C14.5714 8.15189 16.1317 7.61357 17.7611 8.38074C21.6563 10.2148 18.2567 22.2514 8.66567 23.4065C0.0253801 24.4471 -0.0846235 16.5458 0.940411 12.4651C1.81544 8.25689 6.16059 0.207698 16.5409 1.67675C26.9213 3.1458 24.9662 16.7754 22.6911 23.4065Z"
          fill="white"/>
</svg>
