<svg width="1361" height="257" viewBox="0 0 1361 257" fill="none" xmlns="http://www.w3.org/2000/svg">
    <path d="M79.1894 222.867C108.242 222.867 119.531 217.499 131.189 207.139V121.653H103.987V213.614C103.987 217.315 96.953 219.35 92.3291 219.35C61.0569 219.35 22.0185 156.443 22.0185 102.598C22.0185 67.0712 29.2312 45.6062 54.5822 45.6062C75.4937 45.6062 96.584 57.2641 111.2 74.4742L129.338 52.8246C122.489 42.2737 102.69 34.1328 83.6347 34.1328C31.0819 34.1328 0 72.4332 0 125.539C0 176.795 26.2735 222.867 79.1894 222.867Z"
          fill="#1A1A1A"/>
    <path d="M154.68 221.017H265.701V190.673C253.12 203.623 213.892 218.06 181.512 218.244V35.9844H154.68V221.017Z"
          fill="#1A1A1A"/>
    <path d="M350.994 222.867C394.846 222.867 424.083 185.12 424.083 128.503C424.083 71.8797 394.846 34.1328 350.994 34.1328C306.957 34.1328 277.91 71.8797 277.91 128.503C277.91 185.12 306.957 222.867 350.994 222.867ZM306.772 128.318C306.772 73.3614 324.351 36.7273 350.809 36.7273C377.458 36.7273 395.221 73.3614 395.221 128.318C395.221 183.454 377.458 220.094 350.809 220.094C324.351 220.094 306.772 183.454 306.772 128.318Z"
          fill="#1A1A1A"/>
    <path d="M438.334 35.9844V221.017H522.338C548.98 221.017 573.218 201.772 573.218 175.129C573.218 114.626 495.88 124.243 495.88 103.522C495.88 92.2328 562.12 93.1611 562.12 56.3367C562.12 41.1676 548.427 35.9844 534.365 35.9844H438.334ZM465.161 195.113V38.7634H497.54C518.267 38.7634 534.549 42.4591 534.549 59.8536C534.549 98.5288 476.634 93.3455 476.634 117.215C476.634 156.628 570.445 137.198 570.445 173.463C570.445 189.561 554.348 195.113 532.883 195.113H465.161Z"
          fill="#1A1A1A"/>
    <path d="M618.515 221.016C616.48 212.507 615.183 184.567 616.111 153.848H677.912C683.833 174.206 690.123 195.481 697.895 221.016H726.204C707.149 157.919 695.675 120.546 676.983 58.9303C673.097 46.1597 665.7 34.1328 652.192 34.1328C638.683 34.1328 631.28 46.1597 627.4 58.9303C608.708 120.546 597.425 157.919 578.18 221.016H618.515ZM616.296 151.075C617.962 104.259 624.621 52.0809 641.278 52.0809C645.348 52.0809 647.383 54.8599 648.675 58.9303C659.964 94.4575 668.289 122.022 676.983 151.075H616.296Z"
          fill="#1A1A1A"/>
    <path d="M740.449 221.017H851.47V190.673C838.89 203.623 799.661 218.06 767.282 218.244V35.9844H740.449V221.017Z"
          fill="#1A1A1A"/>
    <path d="M971.943 221.016C969.908 212.507 968.611 184.567 969.539 153.848H1031.34C1037.26 174.206 1043.55 195.481 1051.32 221.016H1079.63C1060.58 157.919 1049.1 120.546 1030.41 58.9303C1026.53 46.1597 1019.13 34.1328 1005.62 34.1328C992.111 34.1328 984.708 46.1597 980.828 58.9303C962.136 120.546 950.853 157.919 931.607 221.016H971.943ZM969.723 151.075C971.39 104.259 978.049 52.0809 994.705 52.0809C998.776 52.0809 1000.81 54.8599 1002.1 58.9303C1013.39 94.4575 1021.72 122.022 1030.41 151.075H969.723Z"
          fill="#1A1A1A"/>
    <path d="M1120.7 221.017V38.7634H1160.3C1182.13 38.7634 1190.83 52.0817 1190.83 69.4763C1190.83 117.953 1134.95 120.173 1134.95 138.121C1134.95 149.963 1158.63 186.603 1174.18 206.955C1183.8 219.536 1184.35 221.017 1195.27 221.017H1225.8V219.905C1212.48 219.905 1156.41 138.311 1156.41 125.54C1156.41 114.251 1217.66 112.406 1217.66 67.8101C1217.66 52.641 1207.85 35.9844 1187.68 35.9844H1093.87V221.017H1120.7Z"
          fill="#1A1A1A"/>
    <path d="M1228.91 66.3283C1241.12 53.9324 1264.44 40.2393 1281.09 38.9479V221.017H1307.92V38.9479C1324.57 40.2393 1347.88 53.9324 1360.1 66.3283V35.9844H1228.91V66.3283Z"
          fill="#1A1A1A"/>
</svg>
