<svg width="40" height="40" viewBox="0 0 40 40" fill="none" xmlns="http://www.w3.org/2000/svg">
    <rect width="40" height="40" rx="20" fill="black"/>
    <path d="M9.49197 30.8753C5.23559 28.4178 2.95069 22.4138 7.46971 14.5866C10.257 9.75888 17.8996 4.49002 25.4097 7.14055C28.134 8.10202 28.5021 8.31872 29.6066 9.12863C34.2557 12.538 34.1276 20.8239 33.3616 25.7685C32.9843 28.2044 31.5209 31.8061 31.5209 31.8061L21.6547 31.6588C21.6547 31.6588 23.3726 29.8316 24.379 28.5664C27.6877 24.4068 35.0477 13.5184 29.2384 9.49663C25.918 7.19784 21.2805 10.1918 18.5623 12.0736C15.6908 14.0616 13.8501 16.2451 12.2303 18.7002C9.70413 22.5289 6.78175 27.7565 8.91698 29.8917C10.6455 31.6202 19.4159 28.5301 21.301 26.9142C23.2191 25.2412 23.0923 23.4158 20.3484 23.0886C17.9561 22.812 15.4132 23.2495 13.5459 20.8764L15.4552 15.6561C16.7248 18.1411 19.8587 18.1972 22.1561 19.5617C24.9106 21.19 24.3262 23.7855 23.0683 26.0301C20.3008 31.0216 14.8624 33.9759 9.49197 30.8753Z"
          fill="white"/>
</svg>
